<?xml version="1.0" encoding="UTF-8"?>
<svg version="1.1" xmlns="http://www.w3.org/2000/svg" width="16" height="16">
<path d="M0 0 C1 1 1 1 1.0625 4.0625 C1.041875 5.031875 1.02125 6.00125 1 7 C1.99 7 2.98 7 4 7 C4.87890625 13.15234375 4.87890625 13.15234375 5 15 C4 16 4 16 0.875 16.1328125 C-0.40375 16.13023438 -1.6825 16.12765625 -3 16.125 C-4.27875 16.12757812 -5.5575 16.13015625 -6.875 16.1328125 C-10 16 -10 16 -11 15 C-10.82364548 12.30917128 -10.38164079 9.67148554 -10 7 C-9.01 7 -8.02 7 -7 7 C-7 5.02 -7 3.04 -7 1 C-4.51588385 -0.24205807 -2.74800896 -0.14092354 0 0 Z " fill="#A59CC1" transform="translate(11,0)"/>
<path d="M0 0 C0.33 0 0.66 0 1 0 C1.33 1.65 1.66 3.3 2 5 C2.99 4.01 3.98 3.02 5 2 C8 3 8 3 10 5 C10.33 3.35 10.66 1.7 11 0 C11.66 0.99 12.32 1.98 13 3 C12.67 4.32 12.34 5.64 12 7 C8.04 7 4.08 7 0 7 C-1 3 -1 3 0 0 Z " fill="#A6ACCE" transform="translate(2,8)"/>
<path d="M0 0 C1.67542976 0.28604898 3.34385343 0.61781233 5 1 C5 2.65 5 4.3 5 6 C3.02 6 1.04 6 -1 6 C-1.042721 4.33388095 -1.04063832 2.66617115 -1 1 C-0.67 0.67 -0.34 0.34 0 0 Z " fill="#EDDABD" transform="translate(6,1)"/>
</svg>
